<?xml version="1.0" encoding="UTF-8"?>
<!-- Created with Inkscape (http://www.inkscape.org/) -->
<svg width="100mm" height="100mm" version="1.1" viewBox="0 0 100 100" xmlns="http://www.w3.org/2000/svg" xmlns:xlink="http://www.w3.org/1999/xlink"><defs><linearGradient id="linearGradient4626" x1="24.594" x2="96.644" y1="155.41" y2="-33.624" gradientUnits="userSpaceOnUse"><stop stop-color="#003380" offset="0"/><stop stop-color="#2a7fff" offset="1"/></linearGradient></defs><rect x=".082071" y="-.35917" width="99.804" height="100.25" fill="url(#linearGradient4626)" stroke-width=".2499"/><path d="m12.527 22.116q0-1.0767 2.477-1.5343 2.477-0.4576 4.075-0.4576 1.8378 0 4.0351 0.32303 2.1973 0.32303 2.6767 1.6689 2.3172 6.2988 3.5557 12.84 1.2385 6.5411 1.8777 13.163 0.63924 6.6218 1.0387 13.163 0.39952 6.5411 0.87893 12.948 2.1574-6.4065 4.4346-12.732 2.2772-6.3257 5.9528-12.624v-4.3069q0-2.7456 2.8366-3.9569 2.8365-1.2113 7.6307-1.2113 0.47942 0 2.1973 0.16152t1.7179 1.0767q-0.31963 0.64603-0.75908 1.2382-0.43946 0.59219-0.43946 1.2921 0 8.183 2.8765 16.77 2.8765 8.5868 5.6731 16.716 1.5981-6.9448 3.6755-13.836 2.0775-6.891 4.3148-13.728 2.9564-9.1521 4.5145-15.209t2.9564-9.5828q1.3983-3.5262 3.0363-5.0067 1.638-1.4805 4.5944-1.4805 1.8378-0.10767 3.4358 0.43068 1.5981 0.53836 1.2784 1.7766-5.753 18.735-10.747 37.577-4.9939 18.843-10.188 37.685 0 1.0767 0.55932 2.5303 0.55932 1.4536 0.55932 2.5841 0 0.64602-0.87894 1.0767-0.87893 0.43068-2.1174 0.72678-1.2385 0.2961-2.7167 0.40377-1.4782 0.10761-2.5968 0.10761-2.477 0-5.1937-0.51145-2.7167-0.51143-3.5157-2.934-2.7966-8.3984-5.1538-16.878-2.3571-8.4791-4.3547-17.093-0.63922 1.9919-1.1985 4.0377-0.55932 2.0458-1.0387 4.1454-2.3172 9.1521-5.1138 18.304-2.7966 9.1521-2.7966 18.52 0 2.3149-1.4383 2.9879-1.4382 0.67294-4.8741 0.67294-2.6368 0-4.4746-0.59217-1.4383-0.5384-2.7167-0.9691-1.1186-0.43068-2.0375-0.99596-0.91887-0.56526-0.91887-1.1036-1.2784-11.682-1.7978-23.203-0.51937-11.521-1.1586-23.203-0.63922-10.498-1.8777-20.969-1.2385-10.471-2.7567-20.808z" fill="#fff" stroke-width="3.2762"/></svg>
